<svg width="17" height="17" viewBox="0 0 17 17" fill="none" xmlns="http://www.w3.org/2000/svg">
<path d="M16.4301 1.28033C16.723 0.987437 16.723 0.512563 16.4301 0.21967C16.1372 -0.0732233 15.6623 -0.0732233 15.3694 0.21967L8.64768 6.94141L1.92594 0.21967C1.63304 -0.0732233 1.15817 -0.0732233 0.865276 0.21967C0.572382 0.512563 0.572382 0.987437 0.865276 1.28033L7.58702 8.00208L0.865177 14.7239C0.572285 15.0168 0.572285 15.4917 0.865177 15.7846C1.15807 16.0775 1.63294 16.0775 1.92584 15.7846L8.64768 9.06273L15.3695 15.7846C15.6624 16.0775 16.1373 16.0775 16.4302 15.7846C16.7231 15.4917 16.7231 15.0168 16.4302 14.7239L9.70834 8.00207L16.4301 1.28033Z" fill="#606060"/>
</svg>
